<?xml version="1.0" encoding="utf-8"?>
<!-- Generator: Adobe Adobe Illustrator 29.2.0, SVG Export Plug-In . SVG Version: 6.00 Build 0)  -->
<svg version="1.1" xmlns="http://www.w3.org/2000/svg" xmlns:xlink="http://www.w3.org/1999/xlink" x="0px" y="0px" width="4000px"
	 height="4000px" viewBox="0 0 4000 4000" style="enable-background:new 0 0 4000 4000;" xml:space="preserve">
<style type="text/css">
	.st0{fill:none;}
	.st1{fill:url(#SVGID_1_);}
	.st2{fill:url(#SVGID_00000167355511468443002040000006163626837651520671_);}
	.st3{fill:#65585B;}
	.st4{fill:#594B52;}
	.st5{fill:#85797B;}
	.st6{fill:#A19797;}
	.st7{fill:#5F5255;}
	.st8{fill:#6B5E61;}
	.st9{fill:#4A3C44;}
	.st10{fill:#8A8082;}
	.st11{fill:#84787B;}
	.st12{fill:#7D7174;}
	.st13{fill:#807073;}
	.st14{fill:#837679;}
	.st15{fill:#7F7377;}
	.st16{fill:#817578;}
	.st17{fill:#7F7174;}
	.st18{fill:#87797C;}
	.st19{fill:#8C7C7D;}
	.st20{fill:#7B6F74;}
	.st21{fill:#7E6D6D;}
	.st22{fill:#766B6F;}
	.st23{fill:#75696C;}
	.st24{fill:#4A3B43;}
	.st25{fill:#63575A;}
	.st26{fill:#85797A;}
	.st27{fill:#887C7E;}
	.st28{fill:#84777A;}
	.st29{fill:#847879;}
	.st30{fill:#827576;}
	.st31{fill:#847576;}
	.st32{fill:#7D6F72;}
	.st33{fill:#A19695;}
	.st34{fill:#817579;}
	.st35{fill:#817476;}
	.st36{fill:#807072;}
	.st37{fill:#726769;}
	.st38{fill:#BB294D;}
	.st39{fill:#FDFDFE;}
	.st40{fill:#C65243;}
	.st41{fill:url(#SVGID_00000021119553418973917240000000288266519932528257_);}
	.st42{fill:url(#SVGID_00000109027928865399731400000016077910345463596189_);}
	.st43{fill:#BD2C4E;}
	.st44{fill:#79124F;}
	.st45{fill:#E1B154;}
	.st46{fill:#CE823A;}
	.st47{fill:#EFE0AC;}
	.st48{fill:#EFDDA3;}
	.st49{fill:#F7F0CF;}
	.st50{fill:#662D91;stroke:#000000;stroke-miterlimit:10;}
	.st51{fill:url(#SVGID_00000078757476282735761450000009350534323670954425_);}
	.st52{fill:url(#SVGID_00000143586587069141909370000000293400301847078028_);}
	.st53{stroke:#000000;stroke-miterlimit:10;}
	.st54{opacity:0.09;fill:#662D91;stroke:#000000;stroke-width:14;stroke-miterlimit:10;}
	.st55{stroke:#000000;stroke-width:14;stroke-miterlimit:10;}
	
		.st56{opacity:0.65;fill:url(#SVGID_00000021805886126820941040000017905960862149519507_);stroke:url(#Generated_Pattern_6);stroke-width:4;stroke-miterlimit:10;}
	
		.st57{opacity:0.65;fill:url(#SVGID_00000153687920982197029750000002657225649664497561_);stroke:url(#Generated_Pattern_6);stroke-width:4;stroke-miterlimit:10;}
	
		.st58{opacity:0.65;fill:url(#SVGID_00000137823455022383027950000007098116770168954248_);stroke:url(#Generated_Pattern_6);stroke-width:4;stroke-miterlimit:10;}
	
		.st59{opacity:0.65;fill:url(#SVGID_00000074435247434228804840000012218345868486619048_);stroke:url(#Generated_Pattern_6);stroke-width:4;stroke-miterlimit:10;}
	
		.st60{opacity:0.65;fill:url(#SVGID_00000078039561854093776810000013915861085367601561_);stroke:url(#Generated_Pattern_6);stroke-width:4;stroke-miterlimit:10;}
	
		.st61{opacity:0.65;fill:url(#SVGID_00000121993232939062163790000014290475843558855578_);stroke:url(#Generated_Pattern_6);stroke-width:4;stroke-miterlimit:10;}
	
		.st62{opacity:0.65;fill:url(#SVGID_00000016052659553107883880000003459441051927835070_);stroke:url(#Generated_Pattern_6);stroke-width:4;stroke-miterlimit:10;}
	
		.st63{opacity:0.65;fill:url(#SVGID_00000181772969940681062750000012565442491234606751_);stroke:url(#Generated_Pattern_6);stroke-width:4;stroke-miterlimit:10;}
	
		.st64{opacity:0.65;fill:url(#SVGID_00000175303542385113123560000001029376385240112278_);stroke:url(#Generated_Pattern_6);stroke-width:4;stroke-miterlimit:10;}
	
		.st65{opacity:0.65;fill:url(#SVGID_00000114053102324537487020000012576176766946246321_);stroke:url(#Generated_Pattern_6);stroke-width:4;stroke-miterlimit:10;}
	
		.st66{opacity:0.65;fill:url(#SVGID_00000134961863449682096380000005786147436729158820_);stroke:url(#Generated_Pattern_6);stroke-width:4;stroke-miterlimit:10;}
	
		.st67{opacity:0.65;fill:url(#SVGID_00000080178400734769744840000012654811813571096975_);stroke:url(#Generated_Pattern_6);stroke-width:4;stroke-miterlimit:10;}
	
		.st68{opacity:0.65;fill:url(#SVGID_00000008862078039268493520000005553715983601587122_);stroke:url(#Generated_Pattern_6);stroke-width:4;stroke-miterlimit:10;}
	
		.st69{opacity:0.65;fill:url(#SVGID_00000117642318998455250130000013611334011171283618_);stroke:url(#Generated_Pattern_6);stroke-width:4;stroke-miterlimit:10;}
	
		.st70{opacity:0.65;fill:url(#SVGID_00000013885722525585034520000017890234598815972273_);stroke:url(#Generated_Pattern_6);stroke-width:4;stroke-miterlimit:10;}
	
		.st71{opacity:0.65;fill:url(#SVGID_00000044883473585869022290000006809089184439796126_);stroke:url(#Generated_Pattern_6);stroke-width:4;stroke-miterlimit:10;}
	
		.st72{opacity:0.65;fill:url(#SVGID_00000136398382895774220350000012437270352036128167_);stroke:url(#Generated_Pattern_6);stroke-width:4;stroke-miterlimit:10;}
	
		.st73{opacity:0.65;fill:url(#SVGID_00000118364595491369979540000011103891075399488441_);stroke:url(#Generated_Pattern_6);stroke-width:4;stroke-miterlimit:10;}
	
		.st74{opacity:0.65;fill:url(#SVGID_00000091017185974405123430000001036839122823831437_);stroke:url(#Generated_Pattern_6);stroke-width:4;stroke-miterlimit:10;}
	
		.st75{opacity:0.65;fill:url(#SVGID_00000006700596313764666930000001330661330897572492_);stroke:url(#Generated_Pattern_6);stroke-width:4;stroke-miterlimit:10;}
	
		.st76{opacity:0.65;fill:url(#SVGID_00000040545188513270559120000008666681526365424780_);stroke:url(#Generated_Pattern_6);stroke-width:4;stroke-miterlimit:10;}
	
		.st77{opacity:0.65;fill:url(#SVGID_00000111149819334093688300000011400402549280487841_);stroke:url(#Generated_Pattern_6);stroke-width:4;stroke-miterlimit:10;}
	
		.st78{opacity:0.65;fill:url(#SVGID_00000119105770619764344820000001486605053234997405_);stroke:url(#Generated_Pattern_6);stroke-width:4;stroke-miterlimit:10;}
	
		.st79{opacity:0.65;fill:url(#SVGID_00000098908159226206108710000006328738357342989451_);stroke:url(#Generated_Pattern_6);stroke-width:4;stroke-miterlimit:10;}
	
		.st80{opacity:0.65;fill:url(#SVGID_00000108998061710758685400000006892923020915214993_);stroke:url(#Generated_Pattern_6);stroke-width:4;stroke-miterlimit:10;}
	
		.st81{opacity:0.65;fill:url(#SVGID_00000183944350015715585680000000828096698076311958_);stroke:url(#Generated_Pattern_6);stroke-width:4;stroke-miterlimit:10;}
	
		.st82{opacity:0.65;fill:url(#SVGID_00000148631372131408362380000016571436807546445977_);stroke:url(#Generated_Pattern_6);stroke-width:4;stroke-miterlimit:10;}
	.st83{fill:none;stroke:url(#Generated_Pattern_8);stroke-width:4;stroke-miterlimit:10;}
	.st84{fill:none;stroke:#000000;stroke-width:2;stroke-miterlimit:10;}
</style>
<pattern  width="256" height="256" patternUnits="userSpaceOnUse" id="Generated_Pattern_6" viewBox="0 -256 256 256" style="overflow:visible;">
	<g>
		<rect y="-256" class="st0" width="256" height="256"/>
		
			<linearGradient id="SVGID_1_" gradientUnits="userSpaceOnUse" x1="-50461.8242" y1="-50790.8281" x2="-51470.8242" y2="-50791.1758" gradientTransform="matrix(0.25 0 0 -0.25 12869.25 -12825.75)">
			<stop  offset="0" style="stop-color:#ECC55F"/>
			<stop  offset="0.1189" style="stop-color:#D9A332"/>
			<stop  offset="0.2815" style="stop-color:#FFECAE"/>
			<stop  offset="0.3271" style="stop-color:#FEF2BB"/>
			<stop  offset="0.5411" style="stop-color:#DAA83A"/>
			<stop  offset="0.664" style="stop-color:#F5D774"/>
			<stop  offset="0.7215" style="stop-color:#FFEEB0"/>
			<stop  offset="0.7473" style="stop-color:#FFF6CB"/>
			<stop  offset="1" style="stop-color:#EFCB64"/>
		</linearGradient>
		<rect y="-256" class="st1" width="256" height="256"/>
	</g>
</pattern>
<pattern  width="256" height="256" patternUnits="userSpaceOnUse" id="Generated_Pattern_8" viewBox="0 -256 256 256" style="overflow:visible;">
	<g>
		<rect y="-256" class="st0" width="256" height="256"/>
		
			<linearGradient id="SVGID_00000132802919467292940770000004503567012214432902_" gradientUnits="userSpaceOnUse" x1="-49765.7734" y1="-40262.7773" x2="-50774.7734" y2="-40263.2227" gradientTransform="matrix(0.25 0 0 -0.25 12695.25 -10193.75)">
			<stop  offset="0.0882" style="stop-color:#F78320"/>
			<stop  offset="0.2934" style="stop-color:#FFE7BA"/>
			<stop  offset="0.5183" style="stop-color:#F8790F"/>
			<stop  offset="0.6858" style="stop-color:#FB993E"/>
			<stop  offset="0.8057" style="stop-color:#FFE7B9"/>
			<stop  offset="1" style="stop-color:#F98320"/>
		</linearGradient>
		<rect y="-256" style="fill:url(#SVGID_00000132802919467292940770000004503567012214432902_);" width="256" height="256"/>
	</g>
</pattern>
<g id="Layer_2">
	<g id="Generative_Object_00000134953901223738071770000012536054406649424782_">
		<g>
			<g>
				<g>
					<path class="st3" d="M2687.26,2994.29c-7.54-7.06-53.87-50.48-55.44-54.25c-2.61-6.27,9.85-15.22,5.54-22.34
						c-0.87-1.43,0.86-4.94,0-6.38l99.79,57.44c8.84,7.68,36.54,52.74,60.98,35.1l-60.98-35.1c-29.36-25.49-64.33-62.43-99.79-86.17
						c9.75-14.98,19.22-5.21,33.26-15.96c0.33-0.25,1.58-2.67,5.54-6.38c20.15,15.29,24.6-27.03,36.04-31.91
						c4.9-2.09,80.42,38.17,97.02,44.68c28.57,14.72,55.09,36.75,88.7,35.1c-25.29-17.89-61.14-24.31-88.7-35.1
						c-10.94-5.64-88.08-48.52-88.7-54.25c-0.89-8.23,23.14-22.28,27.72-31.91c4.49-9.45-7.91-19.71-5.54-25.53
						c1.12-2.75,41.03,3.88,52.67,3.19c36.1-2.14,41,2.2,80.39,6.38c15.95,5.61,193.97,55.67,194.04,35.1
						c-23.06-4.02-46.3-4.52-69.3-9.57c-40.84-8.98-78.35-20.6-124.74-25.53c-47.07-16.56-86.17-23.58-116.42-67.02
						c12.87-25.34,47.44,26.35,49.9-22.34c13.55-2.58,96.09-38.65,94.25-54.25c-13.96-5.77-44.16-25.94-55.44-28.72
						c-6.29-38.91,79.86-28.82,97.02-31.91l-24.95-25.53c7.49-6.56,22.03-32.78,24.95-44.68l-119.2,6.38
						c0.51-5.86-6.19-7.02-5.54-12.77c52.86,10.14,127.73-31.92,149.69-89.36c33.12-8.89-0.54-35.14,36.04-57.44
						c54.06-32.97,186.93-64.47,255.02-95.74c65.21-29.95,130.29-65.07,191.27-105.31l-169.09,86.17
						c-111.38,38.02-214.25,92.95-327.1,114.89l19.4-57.44c2.97-5.61,9.78-16.1,11.09-19.15c9.03-21.07,11.94-34.84,16.63-57.44
						c51.61-21.49,102-58.23,149.69-89.36c14.98-8.69,24.84-16.1,38.81-25.53c12.08-8.03,13.35-5.8,27.72-19.15
						c0.98-0.91,13.36,0.48,16.63-9.57c-9.47-11.75-15.78,9.14-16.63,9.57c-15.89,8.11-17.56,12.29-27.72,19.15
						c-12.66,8.42-26.13,17.25-38.81,25.53c-53.08,30.78-113.49,52.53-166.32,82.97c-25.05-32.67,17.26-83.77,5.54-127.65
						c255.14-118.61,501.25-309.9,634.79-593.59c69.66,320.26-194.8,554.5-407.48,692.52c161.15-56.92,324.87-123.27,457.38-245.73
						c-24.12,229.23-263.32,311.75-424.12,386.15c129.9-19.43,257.43-64.38,374.22-130.85c-50.3,194.57-287.32,244.6-440.75,290.41
						l368.68-67.02c-79.92,192.75-324.52,191.31-485.1,213.82l318.78,3.19c-97.11,153.77-302.44,98.4-446.29,105.31l324.32,47.87
						c-105.66,139.68-307.67,66.31-446.29,41.49l302.15,98.93c-92.11,124.85-292.44,22.15-404.71-31.91
						c66.69,73.37,169.61,120.33,260.57,146.8C2910.46,3127.37,2759.14,3061.61,2687.26,2994.29z"/>
					<path class="st4" d="M2321.36,3007.06c-2.99,2.74,9.13,8.61,2.77,12.77c-7.21,4.72-12.68-24.95-19.4-9.57
						c-2.81,6.43,12.51,65.57,5.54,82.97c-20.91,17.3-18.42,3.56-36.04-9.57l2.77,25.53l30.49,146.8
						c-55.79-23.34-83.1-91.47-97.02-153.18c-9.87-43.76,14.04-77.38-22.18-102.12c36.97-52.19,7.03,9.15,47.12,6.38v-44.68
						l22.18,51.06c19.48-20.7,20.01-17.57,22.18-51.06l11.09,38.3l27.72-44.68L2321.36,3007.06z"/>
					<path class="st5" d="M2970,2400.7c-21.95,57.44-96.83,99.5-149.69,89.36c-8.37-1.61-15.11-4.24-22.18-9.57l72.07-31.91
						l-49.9-6.38l44.35-6.38c-83.4-35.74,85.63-53.8,113.65-67.02C2985.51,2373.47,2972.34,2394.58,2970,2400.7z"/>
					<path class="st5" d="M2920.11,2541.12c-18.56,16.26-125.17,51.72-141.37,31.91c9.49-30.93,51.82-31.34,74.84-41.49
						c-0.39-16-32.26,23.57-27.72-28.72l119.2-6.38C2942.14,2508.34,2927.6,2534.56,2920.11,2541.12z"/>
					<path class="st6" d="M3152.96,2119.86c-47.69,31.13-98.08,67.86-149.69,89.36c-11.59,4.83-24.51,7.1-36.04,12.77
						c-3.83-10.63,13.29-15.62,19.4-19.15C3039.47,2172.39,3099.88,2150.64,3152.96,2119.86z"/>
					<path class="st7" d="M2875.76,2770.9c46.39,4.93,83.9,16.55,124.74,25.53c23,5.06,46.24,5.56,69.3,9.57
						C3069.73,2826.56,2891.7,2776.51,2875.76,2770.9z"/>
					<path class="st7" d="M2737.16,2968.76l60.98,35.1C2773.69,3021.5,2746,2976.44,2737.16,2968.76z"/>
					<path class="st7" d="M2809.23,2873.02c27.56,10.8,63.42,17.22,88.7,35.1C2864.32,2909.77,2837.8,2887.74,2809.23,2873.02z"/>
					<path class="st6" d="M3191.77,2094.33c-13.97,9.43-23.83,16.84-38.81,25.53C3165.64,2111.58,3179.1,2102.75,3191.77,2094.33z"
						/>
					<path class="st6" d="M3219.49,2075.18c-14.37,13.35-15.65,11.12-27.72,19.15C3201.92,2087.48,3203.59,2083.29,3219.49,2075.18z
						"/>
					<path class="st6" d="M3219.49,2075.18c0.85-0.43,7.16-21.32,16.63-9.57C3232.84,2075.66,3220.47,2074.27,3219.49,2075.18z"/>
					<path class="st8" d="M2615.19,2279.43c-31.6,19.94-71.08,16.8-102.56,38.3c-107.18,73.15-20.85,222.32-24.95,322.33
						c-5.75,140.13-106.72,247.22-218.99,277.65c-95.37,25.84-116.51-47.89-102.56,127.65c1.22,15.31-0.71,57.72,0,60.64
						c2.06,8.45,72.12,118.19,47.12,111.7c-65.34-64.35-126.06-226.31-108.11-322.33c4.16-22.23,41.87-79.93,33.26-22.34
						c-1.26,8.41-19.42,45.21-8.32,51.06c11.58-43.83,28.21-45.77,58.21-63.83c47.96-28.86,85.58-14.61,135.83-44.68
						c17.97-10.75,65.3-64.13,74.84-86.17c5.9-13.61,32.17-104.6,5.54-82.98c38.18-128.92-100.93-221.22-27.72-338.28
						c56.05-89.63,204.06-96.42,288.29-108.51C2658.93,2222.64,2633.63,2267.79,2615.19,2279.43z"/>
					<path class="st9" d="M2321.36,3007.06l-2.77-51.06l-27.72,44.68l-11.09-38.3c-2.17,33.49-2.69,30.36-22.18,51.06l-22.18-51.06
						v44.68c-40.1,2.77-10.16-58.57-47.12-6.38c-8.53,12.04-13.24,32.68-22.18,44.68c-13.94-175.55,7.19-101.81,102.56-127.65
						c112.27-30.42,213.24-137.52,218.99-277.65c4.1-100.01-82.23-249.17,24.95-322.33c31.49-21.49,70.97-18.35,102.56-38.3
						c-9.34,34.8,8.21,53.8-22.18,73.4c14.08,16.25,30.99-12.48,11.09,25.53c-33.15,63.31-37.72-0.48-47.12,3.19
						c-8.62,3.37-51.19,66.31-2.77,41.49l-13.86,35.1c83.86-51.84,33.28,5.57,63.76,35.1l-49.9,44.68l27.72,6.38
						c-42.04,52.13-13.83,23.2-11.09,44.68c1.34,10.46-29.42,14.01-27.72,19.15c5.72,17.25,15.55,6.04,16.63,12.77
						c1.7,10.59-27.94,29.67-27.72,31.91c0.18,1.83,17.54,7.64,16.63,12.77c-0.93,5.25-10.2,1.15-11.09,6.38
						c-3.74,22.01,10.72,42.07-16.63,44.68c51.46,12.67,42.46,51.15,13.86,79.78l-22.18-51.06c-16.74,38.46-4.1,68.11-52.67,67.02
						c32.45,1.93-7.4,55.28-19.4,67.02c-0.75,0.73-14.77-23.07-19.4-3.19c-7.15,30.68,17.72,27.1,33.26,38.3
						c-31.88,103.77-68.67-74.27-72.07,19.15c41.76-3.91,29.65,47.81-8.32,47.87l-33.26-63.83c-2.41,44.24,12.97,26.12-8.32,73.4
						c-2.97,6.59,5.88,12.17,5.54,12.77C2334.2,3010.55,2323.41,3005.18,2321.36,3007.06z"/>
					<path class="st10" d="M2188.3,2860.25c-30.01,18.06-46.63,19.99-58.21,63.83c-11.11-5.85,7.06-42.65,8.32-51.06
						C2150.39,2863.72,2176.56,2843.77,2188.3,2860.25z"/>
					<g>
						<path class="st7" d="M2992.18,2075.18c11.72,43.88-30.59,94.98-5.54,127.65c-6.12,3.53-23.23,8.52-19.4,19.15
							c11.53-5.66,24.45-7.94,36.04-12.77c-4.69,22.6-7.6,36.37-16.63,57.44l-2.77-44.68c-83.81,78.83-185.07,101.31-285.52,130.85
							l5.54,19.15l27.72,6.38l-77.62,44.68c70.41,3.56,159.77-21.71,185.72-105.31l-11.09,57.44l69.3-41.49l-77.62,51.06
							c71.01,28.82,121.64-35.5,155.23-98.93l-19.4,57.44c112.84-21.94,215.71-76.86,327.1-114.89l169.09-86.17
							c-60.97,40.24-126.06,75.37-191.27,105.31c-68.09,31.27-200.97,62.77-255.02,95.74c-36.58,22.31-2.91,48.56-36.04,57.44
							c2.34-6.12,15.51-27.23,8.32-31.91c-28.02,13.22-197.05,31.28-113.65,67.02l-44.35,6.38l49.9,6.38l-72.07,31.91
							c7.07,5.34,13.8,7.97,22.18,9.57c-0.65,5.75,6.05,6.91,5.54,12.77c-4.54,52.29,27.33,12.72,27.72,28.72
							c-23.02,10.15-65.35,10.56-74.84,41.49c16.2,19.8,122.81-15.65,141.37-31.91l24.95,25.53c-17.16,3.09-103.31-7-97.02,31.91
							c-81.63-20.12-41.62,45.33-63.76,51.06c-41.29,10.7-81.36-15.75-121.97-12.77c-8.87,41.4,44.18,10.48,58.21,22.34
							l-94.25,19.15l182.95,3.19c-2.45,48.69-37.03-3-49.9,22.34c30.26,43.43,69.36,50.45,116.42,67.02
							c-39.39-4.18-44.28-8.52-80.39-6.38c-11.64,0.69-51.55-5.94-52.67-3.19c-2.36,5.82,10.03,16.08,5.54,25.53
							c-4.58,9.64-28.61,23.68-27.72,31.91c0.62,5.74,77.76,48.61,88.7,54.25c-16.6-6.5-92.12-46.77-97.02-44.68
							c-11.43,4.88-15.89,47.21-36.04,31.91c5.48-5.13,12.46-8.72,16.63-15.96c-25.61-12.02-63.35-71.2-88.7-44.68l36.04,41.49
							c-24.85-9.81-51.16,2.37-66.53-25.53c5.19,43.15,66.89,46.51,97.02,51.06c-14.05,10.75-23.52,0.98-33.26,15.96
							c35.46,23.74,70.43,60.67,99.79,86.17l-99.79-57.44c-7.95-13.23-59.92-81.5-72.07-60.64c-0.7,1.2,18.37,19.75,2.77,28.72
							l-47.12-15.96c25.71,36.87,74.33,66.63,116.42,54.25c4.31,7.12-8.15,16.07-5.54,22.34c1.57,3.78,47.9,47.2,55.44,54.25
							l-49.9-22.34c62.17,72.08,131.5,129.6,205.13,185.1c-108.13,57.17-214.42-44.77-285.52-130.84
							c32.44,74.58,93.47,144.56,158,181.91c-93,57.25-186.23-55.92-230.08-143.61c8.15,80.61,73.14,132.65,105.34,197.86
							c-89.71,5.39-138.87-88.69-171.86-172.33c-11.27,2.95,42.05,159.29,58.21,169.14c-67.3,9.75-108.62-77.02-124.74-143.61
							c-21.51,29.61,49.72,143.7,16.63,140.42c-55.67-28.99-66.2-90.06-91.48-146.8l-2.77-25.53c17.62,13.14,15.12,26.87,36.04,9.57
							c6.96-17.4-8.36-76.54-5.54-82.97c6.73-15.38,12.19,14.29,19.4,9.57c6.35-4.16-5.77-10.03-2.77-12.77
							c2.06-1.88,12.84,3.49,16.63-3.19c0.34-0.6-8.51-6.18-5.54-12.77c21.29-47.28,5.91-29.16,8.32-73.4l33.26,63.83
							c37.97-0.06,50.08-51.78,8.32-47.87c3.4-93.41,40.19,84.62,72.07-19.15c-15.54-11.2-40.42-7.61-33.26-38.3
							c4.63-19.88,18.66,3.92,19.4,3.19c12.01-11.74,51.86-65.09,19.4-67.02c48.56,1.09,35.93-28.56,52.67-67.02l22.18,51.06
							c28.6-28.64,37.6-67.12-13.86-79.78c27.36-2.6,12.89-22.67,16.63-44.68c0.89-5.24,10.16-1.14,11.09-6.38
							c0.9-5.12-16.45-10.94-16.63-12.77c-0.22-2.24,29.42-21.32,27.72-31.91c-1.08-6.73-10.92,4.48-16.63-12.77
							c-1.7-5.14,29.06-8.69,27.72-19.15c-2.74-21.48-30.95,7.45,11.09-44.68l-27.72-6.38l49.9-44.68
							c-30.48-29.54,20.1-86.95-63.76-35.1l13.86-35.1c-48.42,24.83-5.85-38.12,2.77-41.49c9.41-3.67,13.97,60.12,47.12-3.19
							c19.9-38.01,3-9.28-11.09-25.53c30.39-19.6,12.83-38.6,22.18-73.4c18.44-11.64,43.75-56.79,49.9-79.78
							c-84.23,12.09-232.24,18.88-288.29,108.51c-73.21,117.06,65.9,209.37,27.72,338.28c26.63-21.62,0.35,69.36-5.54,82.98
							c-9.55,22.04-56.88,75.42-74.84,86.17c-50.25,30.07-87.87,15.82-135.83,44.68c-11.74-16.48-37.91,3.47-49.9,12.77
							c8.6-57.59-29.11,0.11-33.26,22.34c-17.95,96.01,42.76,257.98,108.11,322.33c25,6.49-45.07-103.25-47.12-111.7
							c-0.71-2.92,1.22-45.32,0-60.64c8.93-12,13.65-32.64,22.18-44.68c36.22,24.74,12.31,58.36,22.18,102.12l27.72,143.61
							c-95.88-31.35-198.29-334.07-113.65-405.3c60.52-50.93,174.75,22.27,246.71-118.08c95.83-186.92-104.36-302.31,5.54-440.41
							c79.95-100.46,229.82-60.89,307.69-105.31c33.23-18.96,81-131.1,94.25-172.33c27.64,39.26,34.34,90.65,27.72,140.42
							c6.04,3.92,117.17-38.13,133.06-44.68c16.28-6.71,30.51-34.59,38.81-38.3C2979.65,2061.83,2987.86,2077.19,2992.18,2075.18z"
							/>
						<g>
							<path class="st11" d="M2986.64,2266.66c-1.31,3.05-8.12,13.54-11.09,19.15c-33.59,63.43-84.22,127.75-155.23,98.93
								l77.62-51.06l-69.3,41.49l11.09-57.44c-25.95,83.61-115.32,108.87-185.72,105.31l77.62-44.68l-27.72-6.38l-5.54-19.15
								c100.45-29.53,201.7-52.02,285.52-130.85L2986.64,2266.66z"/>
							<path class="st12" d="M2848.04,2598.56c11.28,2.78,41.48,22.95,55.44,28.72c1.84,15.61-80.7,51.67-94.25,54.25l-182.95-3.19
								l94.25-19.15c-14.04-11.86-67.08,19.06-58.21-22.34c40.61-2.98,80.68,23.46,121.97,12.77
								C2806.41,2643.89,2766.41,2578.45,2848.04,2598.56z"/>
							<path class="st13" d="M2637.36,2911.32c0.86,1.44-0.87,4.95,0,6.38c-42.1,12.38-90.72-17.38-116.42-54.25l47.12,15.96
								c15.6-8.97-3.47-27.52-2.77-28.72C2577.45,2829.82,2629.42,2898.09,2637.36,2911.32z"/>
							<path class="st14" d="M2676.17,2860.25c-3.97,3.71-5.22,6.13-5.54,6.38c-30.13-4.55-91.83-7.91-97.02-51.06
								c15.36,27.9,41.68,15.72,66.53,25.53l-36.04-41.49c25.35-26.52,63.09,32.66,88.7,44.68
								C2688.63,2851.53,2681.65,2855.13,2676.17,2860.25z"/>
							<path class="st15" d="M2978.32,2075.18c21.87,151.53-113.44,227.03-221.76,248.93c16.11-45.74,64.2-46.85,91.48-79.78
								l-63.76,35.1l5.54-51.06c-26.54,59.64-54.99,123.24-124.74,111.7c23.55-10.02,133.61-66.29,60.98-70.21
								C2713.5,2242.54,2967.49,2136.85,2978.32,2075.18z"/>
							<path class="st16" d="M2817.54,2400.7c0.96,0.2,9.84,8.97,13.86,9.57c-29.13,68.71-103.11,101.53-166.32,95.74l94.25-51.06
								l-47.12-15.96C2699.33,2428.27,2809.37,2399.01,2817.54,2400.7z"/>
							<path class="st17" d="M2606.87,2694.3l130.28,86.17c-15.87,3.8-43.07,23.29-58.21,22.34c-11.5-0.72-129.6-52.37-88.7-63.83
								c4.34-1.22,69.67,62.02,80.39,22.34C2675.59,2742.95,2605.73,2724.71,2606.87,2694.3z"/>
							<path class="st18" d="M2767.65,2502.82c9.41-0.54,34.38,5.16,47.12,3.19c-30.02,62.78-104.56,72.11-160.78,63.83l108.11-35.1
								h-49.9l-2.77-15.96C2711.01,2515.85,2764.66,2502.99,2767.65,2502.82z"/>
							<path class="st19" d="M2712.21,2579.42c11.31,3.35,87.68-5.93,85.93,15.96c-13.97,28.01-144.14,45.68-144.14,25.53
								l74.84-15.96l-16.63-6.38V2579.42z"/>
							<path class="st20" d="M2723.3,2687.92c20.47,2.57,5.89,28.36,30.49,28.72c-41.28,17.52-74.45,23.36-110.88-12.77
								C2654.48,2702.09,2719.24,2687.41,2723.3,2687.92z"/>
							<path class="st21" d="M2484.9,2904.93c30.56,18.09,49,60.39,85.93,60.64C2534.62,2987.58,2499.72,2934.02,2484.9,2904.93z"/>
							<path class="st22" d="M2745.47,2183.69c9.22,3.66-24.38,89.99-44.35,82.97L2745.47,2183.69z"/>
						</g>
					</g>
				</g>
				<g>
					<path class="st23" d="M1062.87,2100.71c40.53,37.36,73.43,58.77,124.74,76.59c127.57,44.31,419.72,19.14,390.85,245.73
						c-6.68,52.41-27.78,98.16-33.26,153.18c-0.35,3.52-15.35,9.39-11.09,57.44c5.23,58.96,50.41,141.16,99.79,181.91
						c-15.77-6.73-24.35-0.34-41.58-12.77c-135.52-97.75,2.89-504.2-224.53-504.23c-18.02-8.13-41.45-11.57-60.98-19.15
						c-106.19-41.21-226.26-61.51-291.06-185.1c-16.37-0.97,0.46,24.63,2.77,28.72c42.17,74.42,178.61,130.79,249.48,159.57
						c-46.18,33.97-90.98-12.26-138.6-19.15c48.58,29.2,74.12,62.4,130.28,73.4c-147.79-1.91-331.94-175.74-310.46-363.81
						C976.55,2027.58,1017.99,2068.52,1062.87,2100.71z"/>
					<path class="st24" d="M1367.79,2298.58c42.13,19.01,94.21,34.96,110.88,92.55c25.71,88.8-36.63,200.53-27.72,293.6
						c0.85,8.85,54.67,124.58,60.98,134.04c32.68,48.96,96.66,84.66,146.92,98.93c33.7,9.57,99.75-20.05,113.65,41.49
						c10.93,48.39-27.37,124.76-36.04,175.52c-6.49-1.38,23.78-131.6,8.32-143.61l-36.04,22.34c-12.29-76.6-34.7,13.85-60.98,38.3
						l-2.77-41.49c-52.77,0.04-28.69,123.49-69.3,162.76c-11.49-15.79,13.7-40.84,19.4-67.02c6.24-28.64,7.29-58.59,5.54-95.74
						c-0.22-4.73,10.72-1.49,11.09-6.38c0.4-5.22-58.2-13.49-22.18-82.97c-12.14,12.82-57.5,76.93-72.07,57.44l13.86-73.4
						c-20.21,22.3-39.41,56.83-69.3,51.06c4.13-10.5,6.28-26.51,5.54-38.3c2.58-2.2,18.4-3.71,22.18-15.96
						c-31.53-5.18-6.34-16.12-11.09-31.91c-1.95-6.5-14.1,0.18-16.63-6.38c-4.75-12.34,2.07-44.85-5.54-51.06
						c-9.65-7.86-28.37,1.55-33.26-6.38c-6.82-11.07,6.02-36.43,5.54-38.3c-0.8-3.12-29.75,14.02-33.26-38.3
						c-0.17-2.59,12.02-7.92,11.09-19.15c-0.23-2.77-10.96-10.13-11.09-12.77c-0.17-3.4,24.77-28.8-27.72-31.91
						c1.84-31.71,33.36-1.35,38.81-12.77c1.82-17.12-25.77-20.03-27.72-25.53c-0.9-2.52,16.48-45.82,16.63-51.06
						c0.28-9.55-30-0.64-22.18-25.53c2.38-7.57,14.98,4.49,16.63-12.77c2.82-29.36-38.74-16.3-44.35-25.53l8.32-41.49l41.58,28.72
						c-31.88-34.61-32.98-90.73,11.09-82.97l-13.86-35.1l30.49,3.19c-28.17-38.54-59.81,23.41-63.76,22.34
						c-20.19-5.51-7.48-45.06-8.32-47.87c-1.6-5.35-86.86-53.59-44.35-79.78C1326.34,2287.01,1349.77,2290.44,1367.79,2298.58z"/>
					<g>
						<path class="st25" d="M1062.87,2100.71c-44.88-32.19-86.31-73.14-113.65-127.65c-21.47,188.07,162.68,361.9,310.46,363.81
							c-56.16-11-81.7-44.2-130.28-73.4c47.62,6.89,92.42,53.12,138.6,19.15c-70.87-28.78-207.31-85.15-249.48-159.57
							c-2.32-4.09-19.15-29.69-2.77-28.72c64.8,123.59,184.87,143.89,291.06,185.1c-42.51,26.2,42.75,74.43,44.35,79.78
							c0.84,2.81-11.88,42.36,8.32,47.87c3.94,1.07,35.58-60.88,63.76-22.34l-30.49-3.19l13.86,35.1
							c-44.07-7.75-42.97,48.36-11.09,82.97l-41.58-28.72l-8.32,41.49c5.61,9.23,47.17-3.83,44.35,25.53
							c-1.66,17.26-14.25,5.19-16.63,12.77c-7.82,24.89,22.46,15.98,22.18,25.53c-0.15,5.24-17.53,48.54-16.63,51.06
							c1.95,5.5,29.54,8.42,27.72,25.53c-5.45,11.41-36.97-18.95-38.81,12.77c52.49,3.12,27.55,28.51,27.72,31.91
							c0.13,2.63,10.86,10,11.09,12.77c0.94,11.22-11.26,16.56-11.09,19.15c3.51,52.31,32.47,35.17,33.26,38.3
							c0.48,1.86-12.37,27.23-5.54,38.3c4.89,7.93,23.62-1.48,33.26,6.38c7.62,6.21,0.79,38.72,5.54,51.06
							c2.53,6.56,14.68-0.11,16.63,6.38c4.74,15.79-20.44,26.73,11.09,31.91c-3.77,12.25-19.6,13.76-22.18,15.96
							c-61.32,52.27-39.64,118.34,27.72,47.87l-47.12,22.34c-7.87-11.46,10.8-24.12,13.86-31.91c29.89,5.77,49.09-28.76,69.3-51.06
							l-13.86,73.4c14.57,19.49,59.93-44.62,72.07-57.44c-36.02,69.49,22.57,77.75,22.18,82.97c-0.37,4.89-11.31,1.66-11.09,6.38
							c1.74,37.15,0.69,67.1-5.54,95.74c-5.7,26.18-30.89,51.23-19.4,67.02c40.61-39.27,16.53-162.72,69.3-162.76l2.77,41.49
							c26.28-24.45,48.69-114.89,60.98-38.3l36.04-22.34c15.47,12.01-14.8,142.23-8.32,143.61c8.66-50.77,46.97-127.14,36.04-175.52
							c-13.9-61.54-79.95-31.91-113.65-41.49c-50.26-14.28-114.23-49.98-146.92-98.93c-6.32-9.46-60.14-125.18-60.98-134.04
							c-8.91-93.07,53.43-204.8,27.72-293.6c-16.67-57.59-68.75-73.53-110.88-92.55c227.42,0.03,89.01,406.49,224.53,504.23
							c17.23,12.42,25.81,6.03,41.58,12.77c2.07,1.71,36.92,43.03,44.35,28.72c11.01-21.2-37.87-25.95-44.35-28.72
							c-49.38-40.75-94.57-122.95-99.79-181.91c-4.26-48.06,10.74-53.92,11.09-57.44c5.49-55.02,26.59-100.78,33.26-153.18
							c28.87-226.59-263.28-201.43-390.85-245.73C1136.3,2159.49,1103.4,2138.07,1062.87,2100.71
							c146.93,105.4,288.95,69.85,429.66,134.04c220.71,100.68,20.88,284.48,69.3,456.36c41.07,145.79,129.22,110.53,213.44,137.23
							c130.1,41.24-4.34,375.06-94.25,414.88l16.63-140.42c-18.68,64.53-33.89,129.14-97.02,149.99
							c17.12-52.92,47.38-110.38,41.58-169.14c-21.68,69.87-56.18,180.6-135.83,169.14l58.21-175.52
							c-34.57,82.2-77.58,171.94-166.32,178.72l88.7-191.48c-53.26,84.5-118.83,182.02-221.76,146.8l144.14-191.48
							c-67.03,85.37-158.03,168.31-266.11,134.04l182.95-210.63c-76.48,90.52-243.76,193.66-338.18,89.36
							c87.59-31.01,177.87-71.28,243.94-146.8c-115.97,60.32-299.02,152.21-404.71,31.91c98.9-16.14,204.27-34.88,288.29-102.12
							c-146.17,41.49-334.37,84.76-460.15-31.91l5.54-12.77c102.43,10.7,221.5-3,316.01-44.68
							c-151.27,6.3-343.69,37.81-460.15-95.74l5.54-12.77c112.3,17.74,232.15,21.79,343.73,0
							c-177.72-14.68-423.58-16.11-529.45-207.44c127.51,28.83,260.23,63.02,393.62,63.83c-166.21-50.74-380.92-86.72-465.7-280.84
							l13.86-9.57c124.86,74.1,264.14,110.09,401.94,137.23c-165.37-74.81-432.82-155.98-457.38-392.54
							c137.96,120.67,303.94,188.97,468.47,245.73c-211.69-137.96-482.57-376.21-418.57-692.52
							c142.23,300.53,411.15,472.59,670.82,612.74v-153.18C977.72,1998.74,1015.33,2056.9,1062.87,2100.71z"/>
						<g>
							<path class="st11" d="M1087.82,2400.7l127.51,25.53c2.82,46.36-46.61,11.59-63.76,28.72l91.48,41.49l49.9-12.77
								c-42.74,49.44-106.02,43.57-163.55,47.87c38.7,26.45,89.37,34.26,133.06,25.53l5.54,12.77
								c-5.05,10.28-186.13-5.04-185.72-60.64l141.37-3.19C1178.36,2494.59,1080.88,2463.74,1087.82,2400.7z"/>
							<path class="st26" d="M1035.15,2439c-8.76-3.97-22.27-19.3-33.26-9.57C1010.53,2444.79,1023.45,2437.01,1035.15,2439
								c10.27,4.66,34.04,24.71,36.04,25.53c3.12,1.29,2.46-14.19,5.54-12.77c21.41,9.88,41.04,16.49,58.21,35.1
								c-79.61,20.16-178.76-17.02-210.67-108.51c28.84,15.16,165.38,7.34,155.23,57.44
								C1077.1,2447.66,1042.55,2440.25,1035.15,2439z"/>
							<path class="st27" d="M1010.2,2502.82c40.37-2.8,57.24-9.52,74.84,35.1l-30.49,3.19c4.92,41.85,41.41,5.7,44.35,6.38
								c33.32,7.72,83.47,50.7,133.06,31.91l-38.81,25.53l80.39,15.96c-39.12,14.9-87.67-0.4-124.74-15.96
								c-7.35-3.08-13.46-30.29-22.18-31.91c-9.95-1.85-12.16,14.51-22.18,12.77c-53.11-9.25-107.19-21.69-146.92-67.02
								C958.64,2509.29,1002.62,2503.35,1010.2,2502.82z"/>
							<path class="st14" d="M927.04,2094.33c8.1-1.31,78.77,104.19,91.48,118.08l-60.98-31.91l108.11,98.93l5.54-12.77l33.26,25.53
								c14.68,30.04-68.65,0.95-83.16-6.38C975.79,2262.82,872.36,2103.18,927.04,2094.33z"/>
							<path class="st28" d="M938.13,2228.37c29.18,60.7,139.31,55.22,121.97,134.04c-25.13-21.23-101.11-58.27-22.18-31.91
								c-117.66-72.65-19.98,45.89,38.81,51.06C1020.4,2424.33,908.16,2303.14,938.13,2228.37z"/>
							<path class="st29" d="M1071.18,2311.34l171.86,38.3c-12.27,52.05-62.23,3.76-85.93,22.34c32.32-1.36,12.07,18.33,19.4,22.34
								c10.16,5.55,82.3,10.36,80.39,28.72c-45.59-2.84-101.43-14.58-141.37-41.49C1108.83,2377.03,1043.75,2318.02,1071.18,2311.34
								z"/>
							<path class="st11" d="M1137.71,2624.09l160.78,12.77c-16.46,34.95-59.18,20.47-85.93,28.72l94.25,12.77
								C1306.84,2695.2,1125.32,2687.59,1137.71,2624.09z"/>
							<path class="st30" d="M1276.31,2726.22c5.42-1.12,15.2-1.53,19.4,3.19l-38.81,19.15c-17.52,26.5,62.82,29.34,74.84,15.96
								c25.49,11.89-122.99,59.26-130.28,15.96C1201.32,2775.38,1271.93,2727.12,1276.31,2726.22z"/>
							<path class="st31" d="M1326.21,2783.66c-0.41,28.42-22.7,36.23-36.04,54.25l74.84-9.57
								C1285.54,2900.8,1179.02,2866.21,1326.21,2783.66z"/>
							<path class="st32" d="M1348.38,2860.25c3.71-1.13,11.81-1.29,13.86,3.19l-13.86,28.72l63.76-15.96
								c-23.18,36.44-64.51,42.9-102.56,41.49l-5.54-12.77C1318.41,2901.64,1341.26,2862.42,1348.38,2860.25z"/>
							<path class="st33" d="M685.87,2068.8c78.68,52.93,161.92,97.84,243.94,143.61l-152.46-73.4
								C745.51,2117.82,716.23,2092.24,685.87,2068.8z"/>
							<path class="st34" d="M1198.7,2694.3c15.69-7.16,86.17,2.9,108.11,3.19C1290.72,2738.64,1158.01,2712.88,1198.7,2694.3z"/>
							<path class="st35" d="M1467.58,2917.7c0.74,11.79-1.41,27.79-5.54,38.3c-3.06,7.79-21.73,20.45-13.86,31.91l47.12-22.34
								C1427.94,3036.04,1406.26,2969.97,1467.58,2917.7z"/>
							<path class="st36" d="M1431.54,2917.7c42.54-9.01-40.77,78.05-63.76,35.1C1391.13,2961.01,1427.91,2918.47,1431.54,2917.7z"
								/>
							<path class="st37" d="M1633.9,2815.57c6.49,2.77,55.37,7.52,44.35,28.72C1670.82,2858.6,1635.97,2817.28,1633.9,2815.57z"/>
							<path class="st33" d="M685.87,2068.8c-16-10.76-20.47-15.7-33.26-25.53C664.29,2051.89,674.52,2060.03,685.87,2068.8z"/>
							<path class="st33" d="M635.98,2030.5c-1.6-1.3-13.08,0.72-16.63-9.57C629.02,2009.17,634.18,2029.22,635.98,2030.5z"/>
							<path class="st33" d="M652.61,2043.27c-6.39-4.72-10.4-7.72-16.63-12.77C642.47,2035.14,646.66,2038.7,652.61,2043.27z"/>
							<path class="st3" d="M1035.15,2439c-11.69-1.98-24.61,5.8-33.26-9.57C1012.87,2419.7,1026.39,2435.03,1035.15,2439z"/>
						</g>
					</g>
				</g>
			</g>
		</g>
	</g>
</g>
<g id="Layer_3">
	<g>
		<path class="st38" d="M2485.63,1716.58c-35.98-27.06-71.95-54.12-107.93-81.18c4.56,12.99,47.87,129.9,174.06,169.65
			c137.86,43.43,248-45.12,255.54-51.4"/>
		<g id="Generative_Object_00000165194584057967069150000015842927850499432325_">
			<g>
				<g>
					<path class="st39" d="M2341.25,1480.38c0.62-2.46,3.65-6.42,0.69-7.99C2341.55,1474.88,2338.13,1478.73,2341.25,1480.38z"/>
					<path class="st39" d="M2348.17,1669.8c3.94-1.05,0.92-0.62,0.63-1.84L2348.17,1669.8z"/>
				</g>
				<g>
					<path class="st40" d="M2732.13,1287.74c-3.97,1.94-9.43,7.45-14.5,6.33c2.74-5.45,11.12-8.5,14.56-12.47
						c21.14-24.47,42.18-58.66,44.77-91.51c-24.2,45.88-70.25,61.77-109.29,87.87c-4.98,3.33-11.07,6.19-15.45,9.08
						c-85.42,56.37-194.54,160.95-142.91,272.62l-25.21-34.35c6.38,18.84,17.39,45.07,38.6,49.22c-0.61-5.35,1.02-9.56,2.9-14.42
						c-18.36-114.97,66.91-216.95,169.2-256.4l-53.38,56.7c-11.36,20.33-25.41,39.42-31.6,62.12
						c44.88-44.97,89.58-62.74,145.26-87.85c17.74-8,34.28-20.7,53.71-24.73c103.05-126.29-1.42-258.39,35.19-395.93
						c5.52-20.74,16.7-38.82,22.35-59.13C2719.34,983.51,2889.08,1211.26,2732.13,1287.74z"/>
					<path class="st38" d="M2738.39,1550.93c14.21,24.74,42.57,50.03,41.69,82.14c30.69,4.33,49.88-21.41,67.09-42.75
						c0.11,15-1.23,73.21-45.39,123.44c-55.77,63.44-134.42,62.47-145.54,62.14c30.2,10.86,52.98,17.66,60.3,18.29
						c3.17,0.27,6.15,0.05,6.15,0.05c0.7-0.03,10.88-2.93,13.56-3.57c58.67-13.98,125.12-74.99,156.05-125.26
						c55.09-89.54,70.78-202.73,32.5-301.27c-3.86,33.21-10.78,66.6-24.23,97.54c-36.04,82.88-129.91,144.49-78.05-3.15
						C2781.01,1476.4,2777.68,1534.19,2738.39,1550.93z"/>
					
						<linearGradient id="SVGID_00000108301654900220625990000001333965257153917087_" gradientUnits="userSpaceOnUse" x1="2515.4639" y1="1547.1995" x2="2535.7888" y2="1806.9146" gradientTransform="matrix(-0.9458 -0.3247 -0.3247 0.9458 5735.2275 477.373)">
						<stop  offset="0" style="stop-color:#A41A57"/>
						<stop  offset="1" style="stop-color:#BA254F"/>
					</linearGradient>
					<path style="fill:url(#SVGID_00000108301654900220625990000001333965257153917087_);" d="M2866.32,854.88
						c-5.65,20.31-16.83,38.39-22.35,59.13c-36.6,137.54,67.86,269.64-35.19,395.93c-7.74,9.49-20.51,18.76-28.23,28.34
						c-30.21,37.52-60.73,87.4-59.32,136.88c14.88-41.71,73.59-71.48,104.49-100.82c63.02-59.84,84.68-128.15,77.53-213.88
						c-8.74-104.63-72.15-215.62-22.38-318.05C2874.78,843.66,2870.19,851.49,2866.32,854.88z"/>
					
						<linearGradient id="SVGID_00000134228249423800466060000007369569192502148999_" gradientUnits="userSpaceOnUse" x1="2800.1426" y1="1988.6711" x2="2564.8455" y2="2213.7712" gradientTransform="matrix(-0.9458 -0.3247 -0.3247 0.9458 5735.2275 477.373)">
						<stop  offset="0" style="stop-color:#B22256"/>
						<stop  offset="1" style="stop-color:#C43E48"/>
					</linearGradient>
					<path style="fill:url(#SVGID_00000134228249423800466060000007369569192502148999_);" d="M2352.85,1488.47
						c-1.38,26.48-7.35,140.55,78.24,223.18c73.37,70.83,186.16,91.67,291.36,56.51c-158.22,1.15-274.55-83.98-287.31-178.34
						c-2.07-15.29-6.04-65.05,39.66-127.32c-3.84-1.47-12.58,9.3-14.24,11.55c-2.43,3.3-10.16,24.01-13.43,24.17
						c-3.81-4.96-3.16-10.47-4.78-16.03c-0.96-3.28,4.13-0.59,3.7-1.81c-0.41-1.17-11.21-20.77-12.1-21.63
						c-8.95-8.51-25.74,8.26-29.28-25.47c-4.32-41.16,30.38-126.64,54.91-159.97c9.53-12.95,27.75-21.55,32.59-35.06
						C2474.93,1250.98,2360.72,1338.14,2352.85,1488.47z"/>
					<path class="st43" d="M2487.77,1388.85c-5.02,7.49-6.92,16.59-12.51,24.48l-14.68,60.73c1.66-2.26,10.4-13.02,14.24-11.55
						l3.99,0.34c-5.98,21.22-1.52,42.35,5.28,62.45l25.21,34.35c-51.63-111.67,57.49-216.25,142.91-272.62
						c1.53-5.62,8.6-7.24,11.77-10.35c15.12-14.8,30.37-37.02,37.09-57.15c-34.27,39.16-87.35,52.06-129.21,80
						C2532.1,1326.07,2513.81,1349.99,2487.77,1388.85z"/>
					<path class="st44" d="M2492.18,1238.26c-4.84,13.51-23.05,22.11-32.59,35.06c-24.54,33.33-59.24,118.81-54.91,159.97
						c0.96,9.12,3.58,14.64,8.43,20.61c10.58,13.04,29.29,17,29.32,26.95c0,0.5-0.33,0.45-0.07,1.34
						c1.62,5.56,0.96,11.06,4.78,16.03c3.27-0.15,11-20.86,13.43-24.17c7.4-15.21,14.82-33.56,20.59-54.88
						c2.89-10.69,5.03-20.86,6.6-30.34c-5.57,7.1-13.57,18.35-20.77,33.39c-11.98,25.03-13.37,43.03-18.99,43.24
						c-6.05,0.22-12.43-20.39-15.07-35.29c-16.63-93.85,73.09-196.76,68.26-200.02C2500.65,1229.79,2498.8,1230.7,2492.18,1238.26z"
						/>
					<path class="st39" d="M2732.13,1287.74l0.05-6.15c-3.44,3.98-11.82,7.03-14.56,12.47
						C2722.71,1295.18,2728.16,1289.67,2732.13,1287.74z"/>
					<path class="st39" d="M2663.99,1276.68c-3.17,3.11-10.24,4.72-11.77,10.35c4.39-2.89,10.47-5.76,15.45-9.08L2663.99,1276.68z"
						/>
					<path class="st45" d="M2609.81,1422.52c-39.77,39.86-64.12,85.45-84.22,137.58c-1.88,4.86-3.5,9.07-2.9,14.42
						c-8.17-5.75-27.82-21.23-38.6-49.22c-13.68-35.52-3.69-66.78-0.68-75.22c-2.87,4.14-5.73,8.29-8.6,12.43
						c-11.8,14.76-40.57,54.92-42.83,112.8c-2.86,72.96,38.44,122.15,52.89,139.35c24.98,29.76,62.4,57.95,70.78,51.49
						c2.82-2.18,2.81-8.65,2.3-12.07c-1.35-9.2-8.94-14.63-11.19-16.13c18.58-6.6,45.53-18.82,64.64-44.61
						c39.2-52.89,16.46-97.51,26.59-155.31c14.4-82.13,59.87-145.82,117.09-203.38C2699.4,1359.78,2654.69,1377.55,2609.81,1422.52z
						"/>
					<path class="st46" d="M2780.08,1633.07c-0.88,10.19-5.98,56.62-46.07,92.63c-41.88,37.62-91.18,36.23-100.79,35.77
						c4.21,3.36,6.03,6.04,5.46,8.05c-1.95,6.91-32.05,5.89-90.31-3.06c96.82,34.04,197.69,12.57,253.4-52.71
						c38.82-45.48,44.49-99.06,45.39-123.44C2829.97,1611.66,2810.77,1637.4,2780.08,1633.07z"/>
					<path class="st47" d="M2525.59,1560.1c20.11-52.13,44.45-97.72,84.22-137.58c6.19-22.7,20.24-41.79,31.6-62.12l53.38-56.7
						C2592.5,1343.15,2507.23,1445.13,2525.59,1560.1z"/>
					<g>
						<path class="st48" d="M2755.07,1334.66c-57.22,57.56-102.69,121.25-117.09,203.38c-10.13,57.8,12.61,102.41-26.59,155.31
							c-14.71,19.85-42.72,34.14-64.64,44.61c9.18,7.39,12.16,17.46,8.71,23.36c-0.63,1.07-2.42,3.64-7.08,5.14
							c16.1,5.39,44.81,12.65,80.24,8.58c13.96-1.6,63.97-8.09,105.39-49.35c14.45-14.39,44.89-49.81,46.07-92.63
							c0.88-32.11-27.48-57.4-41.69-82.14c-11.08-19.29-25.11-53.47-17.15-75.77c-1.41-49.48,29.11-99.36,59.32-136.88
							c7.71-9.58,20.48-18.85,28.23-28.34C2789.35,1313.96,2772.81,1326.66,2755.07,1334.66z"/>
						<path class="st49" d="M2718.13,1583.02c-31.77-18.23-35.97,89.6-1.45,94.05c13.15-18.98,28.24-15.99,32.36-43.36
							c2.28-15.15-9.25-31.6-19.93-40.75c-2.89-2.48-5.9,0.12-6.15-0.05C2721.34,1591.76,2721.63,1585.03,2718.13,1583.02z"/>
					</g>
				</g>
			</g>
		</g>
	</g>
</g>
<g id="Layer_1">
	<path d="M2067.39,555.15h28.93c9.54,0.65,14.72-1.86,17.74-4.58c3.82-3.45,5.01-8.01,8.87-8.35c2.65-0.23,5.33,1.64,6.78,3.65
		c3.69,5.12-1.41,9.92-1.04,20.77c0.36,10.73,5.62,14.45,2.55,20.45c-1.45,2.83-4.46,5.58-7.76,5.74
		c-3.84,0.18-6.05-3.26-10.43-6.78c-3.33-2.68-8.59-5.95-16.7-7.91c-15.3,0-30.61,0-45.91,0c0-7.66,0-15.33,0-22.99"/>
	<path d="M2026.5,382.72h28.93c9.54,0.65,14.72-1.86,17.74-4.58c3.82-3.45,5.01-8.01,8.87-8.35c2.65-0.23,5.33,1.64,6.78,3.65
		c3.69,5.12-1.41,9.92-1.04,20.77c0.36,10.73,5.62,14.45,2.55,20.45c-1.45,2.83-4.46,5.58-7.76,5.74
		c-3.84,0.18-6.05-3.26-10.43-6.78c-3.33-2.68-8.59-5.95-16.7-7.91c-15.3,0-30.61,0-45.91,0c0-7.66,0-15.33,0-22.99"/>
	<path d="M1865.39,600.63h-28.93c-9.54-0.65-14.72,1.86-17.74,4.58c-3.82,3.45-5.01,8.01-8.87,8.35c-2.65,0.23-5.33-1.64-6.78-3.65
		c-3.69-5.12,1.41-9.92,1.04-20.77c-0.36-10.73-5.62-14.45-2.55-20.45c1.45-2.83,4.46-5.58,7.76-5.74
		c3.84-0.18,6.05,3.26,10.43,6.78c3.33,2.68,8.59,5.95,16.7,7.91c15.3,0,30.61,0,45.91,0c0,7.66,0,15.33,0,22.99"/>
	<path d="M1894.65,471.96h-28.93c-9.54-0.65-14.72,1.86-17.74,4.58c-3.82,3.45-5.01,8.01-8.87,8.35c-2.65,0.23-5.33-1.64-6.78-3.65
		c-3.69-5.12,1.41-9.92,1.04-20.77c-0.36-10.73-5.62-14.45-2.55-20.45c1.45-2.83,4.46-5.58,7.76-5.74
		c3.84-0.18,6.05,3.26,10.43,6.78c3.33,2.68,8.59,5.95,16.7,7.91c15.3,0,30.61,0,45.91,0c0,7.66,0,15.33,0,22.99"/>
	<path d="M1914.43,315.46h-28.93c-9.54-0.65-14.72,1.86-17.74,4.58c-3.82,3.45-5.01,8.01-8.87,8.35c-2.65,0.23-5.33-1.64-6.78-3.65
		c-3.69-5.12,1.41-9.92,1.04-20.77c-0.36-10.73-5.62-14.45-2.55-20.45c1.45-2.83,4.46-5.58,7.76-5.74
		c3.84-0.18,6.05,3.26,10.43,6.78c3.33,2.68,8.59,5.95,16.7,7.91c15.3,0,30.61,0,45.91,0c0,7.66,0,15.33,0,22.99"/>
	<path class="st50" d="M1646.28,2267.21c-27.08-3.04-49.14,15.65-57.19,22.47c-57.75,48.91-40.1,199.93-37.95,217.07
		c10.71,85.38,36.72,151.05,60.42,209.82c38.99,96.67,61.17,115.31,71.49,181.79c10.83,69.78-1.45,127.66-8.17,153.19
		c-11.63,44.19-21.57,40.36-103.94,193.54c-12.08,22.47-34.4,65-38.85,123.56c-0.12,1.52-0.88,15.52-0.54,32.09
		c1,48.32,11.11,132.15,66.67,212.83c69.34,100.68,167.48,135.48,228.57,157.14c43.49,15.42,197.37,67.19,376.19,4.76
		c52.92-18.47,256.25-89.45,305.26-274.56c6.69-25.26,37.51-154.65-24.51-247.15c-58.46-87.2-87.83-124.6-87.83-124.6
		c-15.4-19.62-32.28-40.03-38.81-71.49c-7.43-35.8,2.69-65.98,8.17-81.7c58.53-167.9,112.59-240.03,87.83-312.51
		c-1.74-5.08-18.7-52.91-51.06-57.19c-26.7-3.53-50.2,24.37-57.19,32.68c-28.01,33.27-20.45,58-36.96,113.56
		c-9.63,32.4-31.93,108.18-95.37,142.01c-15.27,8.14-39.69,21.64-61.9,14.29c-43.33-14.35-63.65-102.76-46.78-222.87
		c-68.35-1-136.7-2-205.06-3c-2.25,8.05-7.75,23.28-21.67,35.68c0,0-18.47,16.46-46.98,18.38c-7.68,0.52-30.84,0.39-63.95-29.81
		c-83.01-75.71-96.48-183.9-96.48-183.9c-15.34-123.22,47.28-214.15,3.16-245.86C1660.9,2268.85,1646.28,2267.21,1646.28,2267.21z"
		/>
	<path class="st50" d="M1889.34,702.62c-2.36-35.6-4.06-45.26-12.19-53.78c-8.07-8.46-19.59-14.25-29.46-30.69
		c-2.22-3.69-4.04-8.06-5.33-13.57c-8.14-34.74,18.92-49.48,32.09-108.57c5.96-26.75,0.49-24.06,3.06-98.02
		c4.16-119.39,18.73-135.38,30.21-140.64c11.76-5.39,13.68,3.51,37.18-0.27c32.6-5.24,40.55-24.23,76.58-30.63
		c16.17-2.87,24.26-4.31,30.63-0.5c27.18,16.24-20.85,86.49-9.59,178.47c12.66,103.32,78.38,156.8,47.64,208
		c-7.59,12.65-18.33,20.22-25.8,24.51c-5.08,4.27-12.25,11.25-18.38,21.44c-7.61,12.67-10.33,24.86-11.63,34.05
		c-7.32,51.6,18.46,88.63,2.04,108.26c-6.96,8.32-27.79,8.27-69.45,8.17c-38.7-0.09-58.22-0.3-66.36-8.1
		C1890.11,790.67,1894.49,780.38,1889.34,702.62z"/>
	<g>
		<path class="st38" d="M1477.92,1677.48c34.48-28.95,68.95-57.9,103.43-86.85c-3.86,13.22-40.85,132.28-164.72,178.73
			c-135.33,50.75-250.07-31.77-257.92-37.63"/>
		<g id="Generative_Object_00000182530785228936927760000012542995345403275441_">
			<g>
				<g>
					<path class="st39" d="M1609.44,1433.88c-0.75-2.42-3.99-6.22-1.11-7.94C1608.85,1428.41,1612.47,1432.07,1609.44,1433.88z"/>
					<path class="st39" d="M1612.68,1623.4c-3.99-0.84-0.95-0.57-0.73-1.8L1612.68,1623.4z"/>
				</g>
				<g>
					<path class="st40" d="M1208.8,1262.46c4.07,1.72,9.81,6.93,14.82,5.54c-3.03-5.29-11.56-7.89-15.21-11.68
						c-22.42-23.3-45.26-56.32-49.61-88.98c26.62,44.52,73.45,57.92,113.85,81.88c5.15,3.05,11.38,5.59,15.92,8.24
						c88.32,51.71,202.89,150.3,157.31,264.57l23.33-35.65c-5.36,19.16-14.95,45.94-35.91,51.22c0.32-5.38-1.53-9.49-3.66-14.25
						c12.17-115.79-78.44-213.06-182.7-246.97l56.34,53.76c12.43,19.7,27.48,38,34.88,60.34c-47.22-42.5-92.82-57.85-149.76-79.94
						c-18.14-7.04-35.34-18.84-54.96-21.82c-109.67-120.58-12.43-258.09-56.35-393.47c-6.62-20.42-18.76-37.87-25.49-57.85
						C1205.27,957.98,1047.97,1194.5,1208.8,1262.46z"/>
					<path class="st38" d="M1216.64,1525.61c-12.86,25.47-39.83,52.24-37.23,84.26c-30.41,5.97-50.96-18.7-69.28-39.09
						c0.7,14.99,5.15,73.04,51.94,120.83c59.09,60.36,137.57,55.17,148.66,54.26c-29.57,12.46-51.96,20.47-59.24,21.5
						c-3.15,0.44-6.14,0.38-6.14,0.38c-0.7,0-11.02-2.34-13.73-2.84c-59.34-10.82-128.96-68.18-162.53-116.72
						c-59.81-86.46-81.55-198.65-48.6-299.1c5.63,32.95,14.33,65.92,29.42,96.1c40.43,80.83,137.47,137.32,77.77-7.33
						C1170.09,1453.47,1176.52,1511,1216.64,1525.61z"/>
					
						<linearGradient id="SVGID_00000027603216278981430880000002561783710848245175_" gradientUnits="userSpaceOnUse" x1="1210.717" y1="989.313" x2="1231.0419" y2="1249.0282" gradientTransform="matrix(0.9271 -0.3749 0.3749 0.9271 -414.6742 642.2675)">
						<stop  offset="0" style="stop-color:#A41A57"/>
						<stop  offset="1" style="stop-color:#BA254F"/>
					</linearGradient>
					<path style="fill:url(#SVGID_00000027603216278981430880000002561783710848245175_);" d="M1051.6,837.42
						c6.73,19.97,18.86,37.43,25.49,57.85c43.92,135.38-53.31,272.89,56.35,393.47c8.24,9.06,21.49,17.63,29.7,26.78
						c32.18,35.85,65.33,84.02,66.57,133.5c-17.09-40.86-77.31-67.43-109.74-95.08c-66.14-56.37-91.43-123.43-88.87-209.41
						c3.12-104.95,60.5-219.18,5.3-318.79C1042.55,826.67,1047.56,834.25,1051.6,837.42z"/>
					
						<linearGradient id="SVGID_00000160890051056081594490000012129472113688873862_" gradientUnits="userSpaceOnUse" x1="1495.3958" y1="1430.7848" x2="1260.0986" y2="1655.8849" gradientTransform="matrix(0.9271 -0.3749 0.3749 0.9271 -414.6742 642.2675)">
						<stop  offset="0" style="stop-color:#B22256"/>
						<stop  offset="1" style="stop-color:#C43E48"/>
					</linearGradient>
					<path style="fill:url(#SVGID_00000160890051056081594490000012129472113688873862_);" d="M1598.28,1442.59
						c2.8,26.37,14.87,139.95-66.17,227.05c-69.47,74.66-180.98,101.52-287.91,72.05c158.06-7.34,269.66-98.57,277.34-193.47
						c1.24-15.38,2.55-65.28-46.43-125.01c3.76-1.67,13.06,8.61,14.84,10.77c2.61,3.17,11.43,23.43,14.71,23.41
						c3.54-5.16,2.59-10.63,3.91-16.26c0.78-3.33-4.16-0.37-3.8-1.61c0.34-1.19,10.08-21.34,10.93-22.24
						c8.48-8.98,26.15,6.87,27.88-27c2.11-41.33-37.12-124.83-63.41-156.8c-10.22-12.42-28.87-20.03-34.42-33.26
						C1463.66,1211.98,1582.38,1292.89,1598.28,1442.59z"/>
					<path class="st43" d="M1458.23,1350.33c5.42,7.21,7.8,16.2,13.81,23.77l17.91,59.86c-1.78-2.16-11.08-12.45-14.84-10.77
						l-3.97,0.56c7.1,20.87,3.79,42.21-1.93,62.64l-23.33,35.65c45.57-114.27-69-212.86-157.31-264.57
						c-1.83-5.53-8.98-6.77-12.31-9.7c-15.89-13.97-32.31-35.34-40.1-55.08c36.32,37.27,90.01,47.31,133.31,72.96
						C1410.59,1290.03,1430.14,1312.93,1458.23,1350.33z"/>
					<path class="st44" d="M1445.75,1200.2c5.56,13.23,24.21,20.84,34.42,33.26c26.29,31.97,65.52,115.47,63.41,156.8
						c-0.47,9.15-2.79,14.81-7.31,21.04c-9.87,13.59-28.34,18.55-27.84,28.48c0.02,0.49,0.35,0.44,0.14,1.34
						c-1.32,5.64-0.37,11.1-3.91,16.26c-3.28,0.02-12.1-20.24-14.71-23.41c-8.21-14.79-16.6-32.72-23.5-53.69
						c-3.46-10.52-6.14-20.56-8.22-29.94c5.95,6.79,14.53,17.59,22.53,32.23c13.3,24.35,15.65,42.26,21.28,42.16
						c6.05-0.11,11.32-21.03,13.15-36.05c11.58-94.61-83.53-192.56-78.88-196.07C1436.84,1192.2,1438.74,1193,1445.75,1200.2z"/>
					<path class="st39" d="M1208.8,1262.46l-0.38-6.14c3.65,3.79,12.18,6.39,15.21,11.68
						C1218.61,1269.39,1212.87,1264.18,1208.8,1262.46z"/>
					<path class="st39" d="M1276.25,1247.77c3.33,2.93,10.48,4.17,12.31,9.7c-4.53-2.65-10.77-5.19-15.92-8.24L1276.25,1247.77z"/>
					<path class="st45" d="M1338.16,1390.5c41.85,37.67,68.6,81.89,91.47,132.87c2.13,4.75,3.98,8.87,3.66,14.25
						c7.85-6.18,26.64-22.69,35.91-51.22c11.76-36.2,0.1-66.88-3.35-75.15c3.08,3.98,6.17,7.97,9.25,11.95
						c12.57,14.1,43.45,52.67,48.82,110.35c6.76,72.7-31.84,124.03-45.34,141.99c-23.35,31.06-59.21,61.21-67.92,55.21
						c-2.94-2.02-3.27-8.49-2.95-11.92c0.86-9.26,8.14-15.09,10.31-16.7c-18.9-5.59-46.48-16.36-66.94-41.08
						c-41.98-50.72-21.66-96.49-34.87-153.66c-18.78-81.24-67.6-142.4-127.82-196.81
						C1245.34,1332.65,1290.94,1347.99,1338.16,1390.5z"/>
					<path class="st46" d="M1179.42,1609.87c1.42,10.13,9,56.22,50.96,90.03c43.84,35.32,92.99,31.3,102.56,30.32
						c-4.02,3.58-5.7,6.36-5.02,8.34c2.31,6.8,32.32,4.16,90.02-7.89c-94.86,39.18-196.73,23.14-255.86-39.05
						c-41.2-43.33-49.74-96.53-51.94-120.83C1128.46,1591.16,1149,1615.84,1179.42,1609.87z"/>
					<path class="st47" d="M1429.63,1523.36c-22.87-50.98-49.62-95.2-91.47-132.87c-7.4-22.34-22.45-40.64-34.88-60.34l-56.34-53.76
						C1351.2,1310.31,1441.81,1407.57,1429.63,1523.36z"/>
					<g>
						<path class="st48" d="M1188.4,1310.55c60.22,54.41,109.04,115.57,127.82,196.81c13.22,57.17-7.1,102.94,34.87,153.66
							c15.75,19.03,44.49,31.8,66.94,41.08c-8.77,7.88-11.21,18.08-7.45,23.79c0.69,1.04,2.61,3.5,7.35,4.76
							c-15.79,6.25-44.07,15.03-79.67,12.87c-14.02-0.85-64.31-4.65-107.89-43.63c-15.2-13.59-47.5-47.33-50.96-90.03
							c-2.6-32.02,24.36-58.79,37.23-84.26c10.03-19.85,22.21-54.74,13.07-76.58c-1.24-49.48-34.39-97.66-66.57-133.5
							c-8.21-9.15-21.46-17.72-29.7-26.78C1153.06,1291.72,1170.26,1303.51,1188.4,1310.55z"/>
						<path class="st49" d="M1238.6,1556.57c30.74-19.91,40.72,87.54,6.49,93.84c-14.14-18.24-29.06-14.46-34.63-41.57
							c-3.09-15,7.54-32.05,17.71-41.76c2.75-2.63,5.89-0.19,6.14-0.38C1235.86,1565.47,1235.21,1558.77,1238.6,1556.57z"/>
					</g>
				</g>
			</g>
		</g>
	</g>
	<polyline class="st53" points="1892.52,2940.81 2113.07,2940.81 2042.97,787.37 1892.52,787.37 	"/>
	<path class="st54" d="M1822.78,3771.04c-45.63-159.89-40.32-282.68-28.18-363.11c27.5-182.07,107.02-259.71,97.05-414.53
		c-7.66-119-63.55-211.6-105.62-267.91"/>
	<path class="st54" d="M2484.3,3285.77c-31.04,6.34-141.73,24.98-246.11-39.37c-115.31-71.09-176.42-214.79-154.63-364.5"/>
	<path class="st55" d="M1857.57,3143.56c-4.17,28.18-8.35,56.35-12.52,84.53c118.97,1.04,237.94,2.09,356.91,3.13
		c2.09-28.18,4.17-56.35,6.26-84.53C2091.33,3145.64,1974.45,3144.6,1857.57,3143.56z"/>
	<path class="st55" d="M1818.15,3342.13c-4.56,31.2-9.12,62.39-13.68,93.59c129.93,1.16,259.87,2.31,389.8,3.47
		c2.28-31.2,4.56-62.39,6.84-93.59C2073.46,3344.44,1945.8,3343.28,1818.15,3342.13z"/>
	<path class="st55" d="M1885.59,3636.42c-2.81,23.15-5.61,46.29-8.42,69.44c79.99,0.86,159.98,1.71,239.96,2.57
		c1.4-23.15,2.81-46.29,4.21-69.44C2042.76,3638.13,1964.18,3637.27,1885.59,3636.42z"/>
	<ellipse class="st55" cx="1969.57" cy="303.09" rx="23.53" ry="20.74"/>
	<path class="st53" d="M1954.94,297.59v-24.04c0.78-0.8,7.56-7.55,17.3-6.26c6.59,0.87,10.7,4.92,11.95,6.26c0,8.01,0,16.03,0,24.04
		"/>
	<ellipse class="st55" cx="1897" cy="580.64" rx="23.53" ry="20.74"/>
	<path class="st53" d="M1882.37,575.13v-24.04c0.78-0.8,7.56-7.55,17.3-6.26c6.59,0.87,10.7,4.92,11.95,6.26c0,8.01,0,16.03,0,24.04
		"/>
	<ellipse class="st55" cx="2035.78" cy="567.52" rx="23.53" ry="20.74"/>
	<path class="st53" d="M2021.15,562.01v-24.04c0.78-0.8,7.56-7.55,17.3-6.26c6.59,0.87,10.7,4.92,11.95,6.26c0,8.01,0,16.03,0,24.04
		"/>
	<ellipse class="st55" cx="1931.41" cy="459.59" rx="23.53" ry="20.74"/>
	<path class="st53" d="M1916.78,454.09v-24.04c0.78-0.8,7.56-7.55,17.3-6.26c6.59,0.87,10.7,4.92,11.95,6.26c0,8.01,0,16.03,0,24.04
		"/>
	<ellipse class="st55" cx="1993.1" cy="395.09" rx="23.53" ry="20.74"/>
	<path class="st53" d="M1978.47,389.58v-24.04c0.78-0.8,7.56-7.55,17.3-6.26c6.59,0.87,10.7,4.92,11.95,6.26c0,8.01,0,16.03,0,24.04
		"/>
	<path class="st53" d="M2149.42,3632.71v72.01c1.02,9.82,9.09,17.39,18.59,17.79c10.1,0.43,19.18-7.34,20.29-17.79
		c0-24,0-48,0-72.01c-0.44-0.65-7.62-10.83-20.29-10.37C2156.4,3622.75,2150.06,3631.76,2149.42,3632.71z"/>
	
		<ellipse transform="matrix(0.8994 -0.437 0.437 0.8994 -1361.7661 1362.3662)" class="st55" cx="2279.65" cy="3640.41" rx="32.55" ry="28.69"/>
	<path class="st53" d="M2301.18,3638.42l14.54,29.92c-0.48,1.46-4.83,13.97-17.74,18.25c-8.73,2.9-16.29,0.35-18.66-0.56
		c-4.85-9.97-9.69-19.95-14.54-29.92"/>
	
		<ellipse transform="matrix(0.7069 -0.7073 0.7073 0.7069 -1829.5032 2720.7488)" class="st55" cx="2367.89" cy="3567.71" rx="32.55" ry="28.69"/>
	<path class="st53" d="M2387.58,3558.78l23.53,23.51c0.02,1.54,0,14.78-10.79,23.05c-7.3,5.6-15.28,5.66-17.82,5.57
		c-7.84-7.84-15.69-15.67-23.53-23.51"/>
	
		<ellipse transform="matrix(0.5046 -0.8634 0.8634 0.5046 -1785.5959 3811.478)" class="st55" cx="2428.3" cy="3461.6" rx="32.55" ry="28.69"/>
	<path class="st53" d="M2445.08,3447.97l28.72,16.78c0.41,1.48,3.75,14.3-4.6,25.04c-5.65,7.26-13.35,9.35-15.82,9.91
		c-9.57-5.59-19.15-11.19-28.72-16.78"/>
	
		<ellipse transform="matrix(0.4236 -0.9059 0.9059 0.4236 -1649.6587 4117.5664)" class="st55" cx="2410.56" cy="3355.01" rx="32.55" ry="28.69"/>
	<path class="st53" d="M2426.03,3339.9l30.13,14.09c0.55,1.44,5.04,13.9-2.29,25.35c-4.96,7.75-12.44,10.53-14.85,11.31
		c-10.04-4.7-20.09-9.39-30.13-14.09"/>
	
		<linearGradient id="SVGID_00000147942617959984253380000002918367892399957392_" gradientUnits="userSpaceOnUse" x1="1892.769" y1="860.8261" x2="2046.3678" y2="860.8261">
		<stop  offset="0" style="stop-color:#FBAE17"/>
		<stop  offset="0.1605" style="stop-color:#FFFFFF"/>
		<stop  offset="0.4081" style="stop-color:#F7CF80"/>
		<stop  offset="1" style="stop-color:#FBAE17"/>
	</linearGradient>
	
		<line style="opacity:0.65;fill:url(#SVGID_00000147942617959984253380000002918367892399957392_);stroke:url(#Generated_Pattern_6);stroke-width:4;stroke-miterlimit:10;" x1="1892.77" y1="860.83" x2="2046.37" y2="860.83"/>
	
		<linearGradient id="SVGID_00000176746468907106820620000006865695765188524956_" gradientUnits="userSpaceOnUse" x1="1892.5164" y1="2810.9304" x2="2109.8696" y2="2810.9304">
		<stop  offset="0" style="stop-color:#FBAE17"/>
		<stop  offset="0.1605" style="stop-color:#FFFFFF"/>
		<stop  offset="0.4081" style="stop-color:#F7CF80"/>
		<stop  offset="1" style="stop-color:#FBAE17"/>
	</linearGradient>
	
		<line style="opacity:0.65;fill:url(#SVGID_00000176746468907106820620000006865695765188524956_);stroke:url(#Generated_Pattern_6);stroke-width:4;stroke-miterlimit:10;" x1="1892.52" y1="2810.93" x2="2109.87" y2="2810.93"/>
	
		<linearGradient id="SVGID_00000163069833144183079050000014720699361946217366_" gradientUnits="userSpaceOnUse" x1="1892.5164" y1="2853.9417" x2="2109.8696" y2="2853.9417">
		<stop  offset="0" style="stop-color:#FBAE17"/>
		<stop  offset="0.1605" style="stop-color:#FFFFFF"/>
		<stop  offset="0.4081" style="stop-color:#F7CF80"/>
		<stop  offset="1" style="stop-color:#FBAE17"/>
	</linearGradient>
	
		<line style="opacity:0.65;fill:url(#SVGID_00000163069833144183079050000014720699361946217366_);stroke:url(#Generated_Pattern_6);stroke-width:4;stroke-miterlimit:10;" x1="1892.52" y1="2853.94" x2="2109.87" y2="2853.94"/>
	
		<linearGradient id="SVGID_00000117640582933843402200000005730427162864045965_" gradientUnits="userSpaceOnUse" x1="1889.2365" y1="2900.8262" x2="2112.4783" y2="2900.8262">
		<stop  offset="0" style="stop-color:#FBAE17"/>
		<stop  offset="0.1605" style="stop-color:#FFFFFF"/>
		<stop  offset="0.4081" style="stop-color:#F7CF80"/>
		<stop  offset="1" style="stop-color:#FBAE17"/>
	</linearGradient>
	
		<line style="opacity:0.65;fill:url(#SVGID_00000117640582933843402200000005730427162864045965_);stroke:url(#Generated_Pattern_6);stroke-width:4;stroke-miterlimit:10;" x1="1889.24" y1="2900.83" x2="2112.48" y2="2900.83"/>
	
		<linearGradient id="SVGID_00000118388631241146715310000016293591608718154929_" gradientUnits="userSpaceOnUse" x1="1892.5164" y1="2940.9084" x2="2113.0679" y2="2940.9084">
		<stop  offset="0" style="stop-color:#FBAE17"/>
		<stop  offset="0.1605" style="stop-color:#FFFFFF"/>
		<stop  offset="0.4081" style="stop-color:#F7CF80"/>
		<stop  offset="1" style="stop-color:#FBAE17"/>
	</linearGradient>
	
		<line style="opacity:0.65;fill:url(#SVGID_00000118388631241146715310000016293591608718154929_);stroke:url(#Generated_Pattern_6);stroke-width:4;stroke-miterlimit:10;" x1="1892.52" y1="2940.91" x2="2113.07" y2="2940.91"/>
	
		<linearGradient id="SVGID_00000127045305848014058030000016327003390062357437_" gradientUnits="userSpaceOnUse" x1="1891.5752" y1="2389.8005" x2="2095.261" y2="2389.8005">
		<stop  offset="0" style="stop-color:#FBAE17"/>
		<stop  offset="0.1605" style="stop-color:#FFFFFF"/>
		<stop  offset="0.4081" style="stop-color:#F7CF80"/>
		<stop  offset="1" style="stop-color:#FBAE17"/>
	</linearGradient>
	
		<line style="opacity:0.65;fill:url(#SVGID_00000127045305848014058030000016327003390062357437_);stroke:url(#Generated_Pattern_6);stroke-width:4;stroke-miterlimit:10;" x1="1891.58" y1="2389.8" x2="2095.26" y2="2389.8"/>
	
		<linearGradient id="SVGID_00000109024202197607236460000000338166911579580056_" gradientUnits="userSpaceOnUse" x1="1891.7826" y1="2322.739" x2="2093.1738" y2="2322.739">
		<stop  offset="0" style="stop-color:#FBAE17"/>
		<stop  offset="0.1605" style="stop-color:#FFFFFF"/>
		<stop  offset="0.4081" style="stop-color:#F7CF80"/>
		<stop  offset="1" style="stop-color:#FBAE17"/>
	</linearGradient>
	
		<line style="opacity:0.65;fill:url(#SVGID_00000109024202197607236460000000338166911579580056_);stroke:url(#Generated_Pattern_6);stroke-width:4;stroke-miterlimit:10;" x1="1891.78" y1="2322.74" x2="2093.17" y2="2322.74"/>
	
		<linearGradient id="SVGID_00000083053286295925924650000016103284375165299852_" gradientUnits="userSpaceOnUse" x1="1892.5164" y1="2257" x2="2093.0552" y2="2257">
		<stop  offset="0" style="stop-color:#FBAE17"/>
		<stop  offset="0.1605" style="stop-color:#FFFFFF"/>
		<stop  offset="0.4081" style="stop-color:#F7CF80"/>
		<stop  offset="1" style="stop-color:#FBAE17"/>
	</linearGradient>
	
		<line style="opacity:0.65;fill:url(#SVGID_00000083053286295925924650000016103284375165299852_);stroke:url(#Generated_Pattern_6);stroke-width:4;stroke-miterlimit:10;" x1="1892.52" y1="2257" x2="2093.06" y2="2257"/>
	
		<linearGradient id="SVGID_00000014619940155655439340000012024861521338455450_" gradientUnits="userSpaceOnUse" x1="1891.5752" y1="2191.261" x2="2088.4783" y2="2191.261">
		<stop  offset="0" style="stop-color:#FBAE17"/>
		<stop  offset="0.1605" style="stop-color:#FFFFFF"/>
		<stop  offset="0.4081" style="stop-color:#F7CF80"/>
		<stop  offset="1" style="stop-color:#FBAE17"/>
	</linearGradient>
	
		<line style="opacity:0.65;fill:url(#SVGID_00000014619940155655439340000012024861521338455450_);stroke:url(#Generated_Pattern_6);stroke-width:4;stroke-miterlimit:10;" x1="1891.58" y1="2191.26" x2="2088.48" y2="2191.26"/>
	
		<linearGradient id="SVGID_00000102529025071770164940000004983843309905553311_" gradientUnits="userSpaceOnUse" x1="1891.5752" y1="2103.3911" x2="2086.3914" y2="2103.3911">
		<stop  offset="0" style="stop-color:#FBAE17"/>
		<stop  offset="0.1605" style="stop-color:#FFFFFF"/>
		<stop  offset="0.4081" style="stop-color:#F7CF80"/>
		<stop  offset="1" style="stop-color:#FBAE17"/>
	</linearGradient>
	
		<line style="opacity:0.65;fill:url(#SVGID_00000102529025071770164940000004983843309905553311_);stroke:url(#Generated_Pattern_6);stroke-width:4;stroke-miterlimit:10;" x1="1891.58" y1="2103.39" x2="2086.39" y2="2103.39"/>
	
		<linearGradient id="SVGID_00000016754293562838521010000015868944029539822986_" gradientUnits="userSpaceOnUse" x1="1892.5164" y1="2000" x2="2082.4409" y2="2000">
		<stop  offset="0" style="stop-color:#FBAE17"/>
		<stop  offset="0.1605" style="stop-color:#FFFFFF"/>
		<stop  offset="0.4081" style="stop-color:#F7CF80"/>
		<stop  offset="1" style="stop-color:#FBAE17"/>
	</linearGradient>
	
		<line style="opacity:0.65;fill:url(#SVGID_00000016754293562838521010000015868944029539822986_);stroke:url(#Generated_Pattern_6);stroke-width:4;stroke-miterlimit:10;" x1="1892.52" y1="2000" x2="2082.44" y2="2000"/>
	
		<linearGradient id="SVGID_00000145748741980433749680000010746597707363384214_" gradientUnits="userSpaceOnUse" x1="1891.7826" y1="1896.609" x2="2079.0869" y2="1896.609">
		<stop  offset="0" style="stop-color:#FBAE17"/>
		<stop  offset="0.1605" style="stop-color:#FFFFFF"/>
		<stop  offset="0.4081" style="stop-color:#F7CF80"/>
		<stop  offset="1" style="stop-color:#FBAE17"/>
	</linearGradient>
	
		<line style="opacity:0.65;fill:url(#SVGID_00000145748741980433749680000010746597707363384214_);stroke:url(#Generated_Pattern_6);stroke-width:4;stroke-miterlimit:10;" x1="1891.78" y1="1896.61" x2="2079.09" y2="1896.61"/>
	
		<linearGradient id="SVGID_00000173881381042621937790000000139720888467329960_" gradientUnits="userSpaceOnUse" x1="1891.5752" y1="1793.218" x2="2075.7886" y2="1793.218">
		<stop  offset="0" style="stop-color:#FBAE17"/>
		<stop  offset="0.1605" style="stop-color:#FFFFFF"/>
		<stop  offset="0.4081" style="stop-color:#F7CF80"/>
		<stop  offset="1" style="stop-color:#FBAE17"/>
	</linearGradient>
	
		<line style="opacity:0.65;fill:url(#SVGID_00000173881381042621937790000000139720888467329960_);stroke:url(#Generated_Pattern_6);stroke-width:4;stroke-miterlimit:10;" x1="1891.58" y1="1793.22" x2="2075.79" y2="1793.22"/>
	
		<linearGradient id="SVGID_00000054232807385046441890000013552218324157954744_" gradientUnits="userSpaceOnUse" x1="1891.5752" y1="1687.819" x2="2072.2244" y2="1687.819">
		<stop  offset="0" style="stop-color:#FBAE17"/>
		<stop  offset="0.1605" style="stop-color:#FFFFFF"/>
		<stop  offset="0.4081" style="stop-color:#F7CF80"/>
		<stop  offset="1" style="stop-color:#FBAE17"/>
	</linearGradient>
	
		<line style="opacity:0.65;fill:url(#SVGID_00000054232807385046441890000013552218324157954744_);stroke:url(#Generated_Pattern_6);stroke-width:4;stroke-miterlimit:10;" x1="1891.58" y1="1687.82" x2="2072.22" y2="1687.82"/>
	
		<linearGradient id="SVGID_00000025405138771121863730000004122812691763777208_" gradientUnits="userSpaceOnUse" x1="1891.2609" y1="1595.9546" x2="2069.27" y2="1595.9546">
		<stop  offset="0" style="stop-color:#FBAE17"/>
		<stop  offset="0.1605" style="stop-color:#FFFFFF"/>
		<stop  offset="0.4081" style="stop-color:#F7CF80"/>
		<stop  offset="1" style="stop-color:#FBAE17"/>
	</linearGradient>
	
		<line style="opacity:0.65;fill:url(#SVGID_00000025405138771121863730000004122812691763777208_);stroke:url(#Generated_Pattern_6);stroke-width:4;stroke-miterlimit:10;" x1="1891.26" y1="1595.95" x2="2069.27" y2="1595.95"/>
	
		<linearGradient id="SVGID_00000060745947247033484170000010016030560248968891_" gradientUnits="userSpaceOnUse" x1="1891.5752" y1="1463.9565" x2="2065" y2="1463.9565">
		<stop  offset="0" style="stop-color:#FBAE17"/>
		<stop  offset="0.1605" style="stop-color:#FFFFFF"/>
		<stop  offset="0.4081" style="stop-color:#F7CF80"/>
		<stop  offset="1" style="stop-color:#FBAE17"/>
	</linearGradient>
	
		<line style="opacity:0.65;fill:url(#SVGID_00000060745947247033484170000010016030560248968891_);stroke:url(#Generated_Pattern_6);stroke-width:4;stroke-miterlimit:10;" x1="1891.58" y1="1463.96" x2="2065" y2="1463.96"/>
	
		<linearGradient id="SVGID_00000109723821373476124990000016674957499633889159_" gradientUnits="userSpaceOnUse" x1="1889.6957" y1="1368.2164" x2="2061.8823" y2="1368.2164">
		<stop  offset="0" style="stop-color:#FBAE17"/>
		<stop  offset="0.1605" style="stop-color:#FFFFFF"/>
		<stop  offset="0.4081" style="stop-color:#F7CF80"/>
		<stop  offset="1" style="stop-color:#FBAE17"/>
	</linearGradient>
	
		<line style="opacity:0.65;fill:url(#SVGID_00000109723821373476124990000016674957499633889159_);stroke:url(#Generated_Pattern_6);stroke-width:4;stroke-miterlimit:10;" x1="1889.7" y1="1368.22" x2="2061.88" y2="1368.22"/>
	
		<linearGradient id="SVGID_00000011001629397718069980000007082973711026328964_" gradientUnits="userSpaceOnUse" x1="1891.7256" y1="1254.3473" x2="2058.1963" y2="1254.3473">
		<stop  offset="0" style="stop-color:#FBAE17"/>
		<stop  offset="0.1605" style="stop-color:#FFFFFF"/>
		<stop  offset="0.4081" style="stop-color:#F7CF80"/>
		<stop  offset="1" style="stop-color:#FBAE17"/>
	</linearGradient>
	
		<line style="opacity:0.65;fill:url(#SVGID_00000011001629397718069980000007082973711026328964_);stroke:url(#Generated_Pattern_6);stroke-width:4;stroke-miterlimit:10;" x1="1891.73" y1="1254.35" x2="2058.2" y2="1254.35"/>
	
		<linearGradient id="SVGID_00000091703025742509258730000009851832668289061779_" gradientUnits="userSpaceOnUse" x1="1892.769" y1="1140.4783" x2="2054.5652" y2="1140.4783">
		<stop  offset="0" style="stop-color:#FBAE17"/>
		<stop  offset="0.1605" style="stop-color:#FFFFFF"/>
		<stop  offset="0.4081" style="stop-color:#F7CF80"/>
		<stop  offset="1" style="stop-color:#FBAE17"/>
	</linearGradient>
	
		<line style="opacity:0.65;fill:url(#SVGID_00000091703025742509258730000009851832668289061779_);stroke:url(#Generated_Pattern_6);stroke-width:4;stroke-miterlimit:10;" x1="1892.77" y1="1140.48" x2="2054.57" y2="1140.48"/>
	
		<linearGradient id="SVGID_00000154417909491689281680000005978308090852775100_" gradientUnits="userSpaceOnUse" x1="1891.5752" y1="1042.3914" x2="2051.9565" y2="1042.3914">
		<stop  offset="0" style="stop-color:#FBAE17"/>
		<stop  offset="0.1605" style="stop-color:#FFFFFF"/>
		<stop  offset="0.4081" style="stop-color:#F7CF80"/>
		<stop  offset="1" style="stop-color:#FBAE17"/>
	</linearGradient>
	
		<line style="opacity:0.65;fill:url(#SVGID_00000154417909491689281680000005978308090852775100_);stroke:url(#Generated_Pattern_6);stroke-width:4;stroke-miterlimit:10;" x1="1891.58" y1="1042.39" x2="2051.96" y2="1042.39"/>
	
		<linearGradient id="SVGID_00000045602857385335777170000008139353797699600049_" gradientUnits="userSpaceOnUse" x1="1891.7826" y1="940.1304" x2="2050.5515" y2="940.1304">
		<stop  offset="0" style="stop-color:#FBAE17"/>
		<stop  offset="0.1605" style="stop-color:#FFFFFF"/>
		<stop  offset="0.4081" style="stop-color:#F7CF80"/>
		<stop  offset="1" style="stop-color:#FBAE17"/>
	</linearGradient>
	
		<line style="opacity:0.65;fill:url(#SVGID_00000045602857385335777170000008139353797699600049_);stroke:url(#Generated_Pattern_6);stroke-width:4;stroke-miterlimit:10;" x1="1891.78" y1="940.13" x2="2050.55" y2="940.13"/>
	
		<linearGradient id="SVGID_00000127744463923049284920000009333631888338487231_" gradientUnits="userSpaceOnUse" x1="1891.5752" y1="2664.6934" x2="2104.2764" y2="2664.6934">
		<stop  offset="0" style="stop-color:#FBAE17"/>
		<stop  offset="0.1605" style="stop-color:#FFFFFF"/>
		<stop  offset="0.4081" style="stop-color:#F7CF80"/>
		<stop  offset="1" style="stop-color:#FBAE17"/>
	</linearGradient>
	
		<line style="opacity:0.65;fill:url(#SVGID_00000127744463923049284920000009333631888338487231_);stroke:url(#Generated_Pattern_6);stroke-width:4;stroke-miterlimit:10;" x1="1891.58" y1="2664.69" x2="2104.28" y2="2664.69"/>
	
		<linearGradient id="SVGID_00000171721399532692171340000017978782716334898843_" gradientUnits="userSpaceOnUse" x1="1891.5752" y1="2715.0869" x2="2107.7827" y2="2715.0869">
		<stop  offset="0" style="stop-color:#FBAE17"/>
		<stop  offset="0.1605" style="stop-color:#FFFFFF"/>
		<stop  offset="0.4081" style="stop-color:#F7CF80"/>
		<stop  offset="1" style="stop-color:#FBAE17"/>
	</linearGradient>
	
		<line style="opacity:0.65;fill:url(#SVGID_00000171721399532692171340000017978782716334898843_);stroke:url(#Generated_Pattern_6);stroke-width:4;stroke-miterlimit:10;" x1="1891.58" y1="2715.09" x2="2107.78" y2="2715.09"/>
	
		<linearGradient id="SVGID_00000025417920417010673060000012870879462335295928_" gradientUnits="userSpaceOnUse" x1="1891.5752" y1="2758.9131" x2="2108.8262" y2="2758.9131">
		<stop  offset="0" style="stop-color:#FBAE17"/>
		<stop  offset="0.1605" style="stop-color:#FFFFFF"/>
		<stop  offset="0.4081" style="stop-color:#F7CF80"/>
		<stop  offset="1" style="stop-color:#FBAE17"/>
	</linearGradient>
	
		<line style="opacity:0.65;fill:url(#SVGID_00000025417920417010673060000012870879462335295928_);stroke:url(#Generated_Pattern_6);stroke-width:4;stroke-miterlimit:10;" x1="1891.58" y1="2758.91" x2="2108.83" y2="2758.91"/>
	
		<linearGradient id="SVGID_00000091701016515293323840000011641694403089521816_" gradientUnits="userSpaceOnUse" x1="1891.5752" y1="2470.3552" x2="2097.9583" y2="2470.3552">
		<stop  offset="0" style="stop-color:#FBAE17"/>
		<stop  offset="0.1605" style="stop-color:#FFFFFF"/>
		<stop  offset="0.4081" style="stop-color:#F7CF80"/>
		<stop  offset="1" style="stop-color:#FBAE17"/>
	</linearGradient>
	
		<line style="opacity:0.65;fill:url(#SVGID_00000091701016515293323840000011641694403089521816_);stroke:url(#Generated_Pattern_6);stroke-width:4;stroke-miterlimit:10;" x1="1891.58" y1="2470.36" x2="2097.96" y2="2470.36"/>
	
		<linearGradient id="SVGID_00000041292738069357714750000007424324954069361074_" gradientUnits="userSpaceOnUse" x1="1891.5752" y1="2529.3479" x2="2100.4783" y2="2529.3479">
		<stop  offset="0" style="stop-color:#FBAE17"/>
		<stop  offset="0.1605" style="stop-color:#FFFFFF"/>
		<stop  offset="0.4081" style="stop-color:#F7CF80"/>
		<stop  offset="1" style="stop-color:#FBAE17"/>
	</linearGradient>
	
		<line style="opacity:0.65;fill:url(#SVGID_00000041292738069357714750000007424324954069361074_);stroke:url(#Generated_Pattern_6);stroke-width:4;stroke-miterlimit:10;" x1="1891.58" y1="2529.35" x2="2100.48" y2="2529.35"/>
	
		<linearGradient id="SVGID_00000052795204996049402590000018181242234321356935_" gradientUnits="userSpaceOnUse" x1="1891.5752" y1="2588.3403" x2="2101.9485" y2="2588.3403">
		<stop  offset="0" style="stop-color:#FBAE17"/>
		<stop  offset="0.1605" style="stop-color:#FFFFFF"/>
		<stop  offset="0.4081" style="stop-color:#F7CF80"/>
		<stop  offset="1" style="stop-color:#FBAE17"/>
	</linearGradient>
	
		<line style="opacity:0.65;fill:url(#SVGID_00000052795204996049402590000018181242234321356935_);stroke:url(#Generated_Pattern_6);stroke-width:4;stroke-miterlimit:10;" x1="1891.58" y1="2588.34" x2="2101.95" y2="2588.34"/>
	<path class="st83" d="M1905.87,3655.2c-1.33-982.42-2.65-1964.83-3.98-2947.25"/>
	<path class="st83" d="M1994.42,707.96c18.56,981.83,37.11,1963.66,55.67,2945.5"/>
	<path class="st83" d="M1944.26,3656.59c-4.27-982.88-8.55-1965.75-12.82-2948.63"/>
	<path class="st83" d="M1965.35,707.96c9.69,982.88,19.38,1965.75,29.07,2948.63"/>
	<path class="st83" d="M2021.15,707.96c24.88,981.83,49.75,1963.66,74.63,2945.5"/>
	<line class="st84" x1="1901.89" y1="707.96" x2="1901.89" y2="584.3"/>
	<line class="st84" x1="1931.41" y1="707.96" x2="1931.41" y2="443.96"/>
	<line class="st84" x1="1994.42" y1="707.96" x2="1994.42" y2="401.7"/>
	<line class="st84" x1="2021.15" y1="708.31" x2="2021.15" y2="559.9"/>
	<line class="st84" x1="1965.35" y1="707.96" x2="1965.35" y2="310.91"/>
</g>
</svg>
